<?xml version="1.0" encoding="UTF-8"?>
<svg width="700pt" height="700pt" version="1.1" viewBox="0 0 700 700" xmlns="http://www.w3.org/2000/svg">
 <path d="m350.46 120.28c-3.4961 0.050781-6.8867 1.2109-9.6797 3.3125l-97.406 73.09h-0.003906c-4.1055 3.1133-6.5195 7.9727-6.5195 13.125s2.4141 10.012 6.5195 13.125l97.406 73.09h0.003906c3.4922 2.6328 7.8945 3.7695 12.227 3.1523 4.3359-0.61719 8.2461-2.9297 10.871-6.4336 2.6445-3.5 3.7852-7.9062 3.168-12.25-0.61719-4.3398-2.9375-8.2578-6.4492-10.883l-58.004-43.395h139.2c49.727 0 89.367 39.961 89.367 90.332s-39.641 90.234-89.367 90.234h-289.49c-4.3672 0.015625-8.5508 1.7656-11.629 4.8672-3.0742 3.1016-4.793 7.2969-4.7773 11.668 0.015624 4.3438 1.75 8.5078 4.8242 11.582 3.0742 3.0703 7.2344 4.8047 11.582 4.8242h289.49c67.555 0 122.31-55.273 122.31-123.18s-54.754-123.14-122.31-123.14h-139.2l58-43.43h0.003906c3.5039-2.6211 5.8164-6.5312 6.4336-10.867 0.61328-4.332-0.51953-8.7344-3.1523-12.23-2.6211-3.4961-6.5195-5.8086-10.844-6.4336-0.85156-0.12109-1.7109-0.17578-2.5742-0.16016z"/>
</svg>
